<svg xmlns="http://www.w3.org/2000/svg" width="57.641" height="61.869" viewBox="0 0 57.641 61.869">
  <g id="tomato_1_" data-name="tomato (1)" transform="translate(-8.35 -5.58)">
    <path id="Path_109" data-name="Path 109" d="M49.442,19.577a.692.692,0,0,1-.692-.692c0-7.459,3.342-13.305,7.611-13.305a.692.692,0,0,1,0,1.384c-3.376,0-6.227,5.459-6.227,11.921A.692.692,0,0,1,49.442,19.577Z" transform="translate(-12.448)" fill="#009245"/>
    <path id="Path_110" data-name="Path 110" d="M65.991,48.176c0,13.9-12.911,25.164-28.824,25.164S8.35,62.076,8.35,48.176,21.254,24.7,37.167,24.7,65.991,34.283,65.991,48.176Z" transform="translate(0 -5.891)" fill="#ed1c24"/>
    <g id="Group_36" data-name="Group 36" transform="translate(12.766 31.143)" opacity="0.5">
      <path id="Path_111" data-name="Path 111" d="M15.768,50a1.286,1.286,0,0,1-.228,0,1.031,1.031,0,0,1-.782-1.238A21.379,21.379,0,0,1,16.91,43.1a1.038,1.038,0,1,1,1.82,1,19.511,19.511,0,0,0-1.951,5.127A1.038,1.038,0,0,1,15.768,50Z" transform="translate(-14.732 -42.527)" fill="#f2f2f2"/>
    </g>
    <g id="Group_37" data-name="Group 37" transform="translate(12.259 41.247)" opacity="0.5">
      <path id="Path_112" data-name="Path 112" d="M19.971,73.306a1.031,1.031,0,0,1-.817-.4A23.856,23.856,0,0,1,14,58.168a1.038,1.038,0,1,1,2.076,0,21.8,21.8,0,0,0,4.733,13.464,1.038,1.038,0,0,1-.823,1.674Z" transform="translate(-14 -57.13)" fill="#f2f2f2"/>
    </g>
    <g id="Group_38" data-name="Group 38" transform="translate(29.612 18.899)" opacity="0.2">
      <path id="Path_113" data-name="Path 113" d="M75.46,48.216c0,13.9-12.911,25.164-28.824,25.164a32.927,32.927,0,0,1-7.555-.865c.6,0,1.2.048,1.8.048C56.792,72.564,69.7,61.3,69.7,47.4c0-11.409-8.683-19.9-20.6-22.569C63.87,25.75,75.46,35.042,75.46,48.216Z" transform="translate(-39.08 -24.83)"/>
    </g>
    <path id="Path_114" data-name="Path 114" d="M48.56,22.8s7.016-3.321,10.835-1.135,9.091,1.55,9.091,1.55-6.324,3.217-8.434,2.332-4.712-.464-6.954.533S48.56,22.8,48.56,22.8Z" transform="translate(-12.389 -4.727)" fill="#39b54a"/>
    <g id="Group_39" data-name="Group 39" transform="translate(36.171 18.076)" opacity="0.1">
      <path id="Path_115" data-name="Path 115" d="M68.473,24.09c-.332.166-6.365,3.183-8.42,2.325s-4.712-.464-6.954.533S48.56,23.64,48.56,23.64s.387,1,.823.816A2.913,2.913,0,0,0,53.1,25.563c2.242-1,4.843-1.418,6.954-.533,1.086.457,3.3-.18,5.182-.9a20.017,20.017,0,0,0,3.238-.042Z" transform="translate(-48.56 -23.64)"/>
    </g>
    <path id="Path_116" data-name="Path 116" d="M50.885,26.846s-.083,3.259,5.286,6.85a40.586,40.586,0,0,1,7.888,6.559S61.485,34.25,58,30.569s-2.332-2.491-2.332-2.491S48.658,20.37,50.885,26.846Z" transform="translate(-12.971 -5.754)" fill="#39b54a"/>
    <g id="Group_40" data-name="Group 40" transform="translate(37.477 18.511)" opacity="0.1">
      <path id="Path_117" data-name="Path 117" d="M64.052,40.239a40.822,40.822,0,0,0-7.881-6.552c-5.341-3.591-5.286-6.836-5.286-6.836-.8-2.339-.408-2.823.429-2.484-.277.242-.256.982.263,2.484,0,0-.083,3.259,5.286,6.85a47.921,47.921,0,0,1,6.545,5.175C63.8,39.644,64.024,40.156,64.052,40.239Z" transform="translate(-50.447 -24.27)"/>
    </g>
    <g id="Group_41" data-name="Group 41" transform="translate(43.256 22.241)" opacity="0.1">
      <path id="Path_118" data-name="Path 118" d="M58.876,29.7h-.042L58.8,29.66a.782.782,0,0,1,.076.042Z" transform="translate(-58.8 -29.66)"/>
    </g>
    <path id="Path_119" data-name="Path 119" d="M42.378,26.707s-1.633,3.39-8.171,5.6a42.325,42.325,0,0,0-9.956,4.608s4.31-5.5,8.912-8.3,3.127-1.93,3.127-1.93S46.46,20.646,42.378,26.707Z" transform="translate(-4.899 -5.677)" fill="#39b54a"/>
    <g id="Group_42" data-name="Group 42" transform="translate(19.365 18.415)" opacity="0.1">
      <path id="Path_120" data-name="Path 120" d="M42.384,26.745s-1.633,3.39-8.171,5.6a44.108,44.108,0,0,0-9.942,4.594c.118-.152,1.045-1.315,2.435-2.768a53.316,53.316,0,0,1,7.507-3.21c6.538-2.228,8.171-5.618,8.171-5.618a9.728,9.728,0,0,0,.692-1.211c.47.27.381,1.031-.692,2.615Z" transform="translate(-24.27 -24.13)"/>
    </g>
    <g id="Group_43" data-name="Group 43" transform="translate(31.459 20.2)" opacity="0.1">
      <path id="Path_121" data-name="Path 121" d="M41.792,26.758H41.75l.083-.048A.09.09,0,0,1,41.792,26.758Z" transform="translate(-41.75 -26.71)"/>
      <path id="Path_122" data-name="Path 122" d="M41.88,26.74h.035Z" transform="translate(-41.79 -26.719)"/>
    </g>
    <path id="Path_123" data-name="Path 123" d="M39.515,20a12.18,12.18,0,0,1-6.808-1.384c-2.913-1.806-5.418-4.034-9.866-3.459,0,0,5.293,2.359,8.213,6.386s10.96,1.667,10.378.284A3.321,3.321,0,0,0,39.515,20Z" transform="translate(-4.464 -2.923)" fill="#39b54a"/>
    <g id="Group_44" data-name="Group 44" transform="translate(18.376 12.135)" opacity="0.1">
      <path id="Path_124" data-name="Path 124" d="M41.473,22.06c-.381,1.384-7.673,3.266-10.42-.533-2.92-4.027-8.213-6.386-8.213-6.386a11.354,11.354,0,0,1,1.91-.076,21.89,21.89,0,0,1,7,5.77C34.021,24.011,39.556,23.215,41.473,22.06Z" transform="translate(-22.84 -15.054)"/>
    </g>
  </g>
</svg>
