<svg xmlns="http://www.w3.org/2000/svg" width="39.046" height="37.374" viewBox="0 0 39.046 37.374">
  <g id="Group_48" data-name="Group 48" transform="translate(1.523 1.5)">
    <path id="Path_106" data-name="Path 106" d="M35.948,24.836a1.054,1.054,0,0,0-.851-.718L23.937,22.5,18.946,12.384a1.055,1.055,0,0,0-1.891,0L12.063,22.5.9,24.118a1.055,1.055,0,0,0-.584,1.8l8.075,7.872L6.488,44.9a1.055,1.055,0,0,0,1.53,1.112L18,40.768l9.982,5.248a1.055,1.055,0,0,0,1.53-1.112L27.605,33.789l8.076-7.872A1.054,1.054,0,0,0,35.948,24.836Z" transform="translate(0 -11.796)" fill="#ffff3b" stroke="#000" stroke-width="3"/>
  </g>
</svg>
